<?xml version="1.0" encoding="UTF-8"?>
<svg id="Layer_1" data-name="Layer 1" xmlns="http://www.w3.org/2000/svg" viewBox="0 0 792 792">
  <defs>
    <style>
      .cls-1 {
        fill: #646464;
      }

      .cls-1, .cls-2, .cls-3, .cls-4, .cls-5, .cls-6, .cls-7, .cls-8, .cls-9, .cls-10, .cls-11, .cls-12, .cls-13, .cls-14, .cls-15, .cls-16, .cls-17, .cls-18, .cls-19, .cls-20, .cls-21, .cls-22, .cls-23, .cls-24, .cls-25, .cls-26, .cls-27 {
        stroke-width: 0px;
      }

      .cls-2 {
        fill: #999898;
      }

      .cls-3 {
        fill: #a9a8a8;
      }

      .cls-4 {
        fill: #1a1a1a;
      }

      .cls-5 {
        fill: #858585;
      }

      .cls-6 {
        fill: #131313;
      }

      .cls-7 {
        fill: #898888;
      }

      .cls-8 {
        fill: #663a27;
      }

      .cls-9 {
        fill: none;
      }

      .cls-10 {
        fill: #7e7d7d;
      }

      .cls-11 {
        fill: #552f1e;
      }

      .cls-12 {
        fill: #704330;
      }

      .cls-13 {
        fill: #1b0e09;
      }

      .cls-14 {
        fill: #432518;
      }

      .cls-15 {
        fill: #353332;
      }

      .cls-16 {
        fill: #4e5252;
      }

      .cls-17 {
        fill: #140905;
      }

      .cls-18 {
        fill: #120905;
      }

      .cls-19 {
        fill: #969696;
      }

      .cls-20 {
        fill: #adadad;
      }

      .cls-21 {
        fill: #848484;
      }

      .cls-22 {
        fill: #6d6d6d;
      }

      .cls-23 {
        fill: #371e13;
      }

      .cls-24 {
        fill: #57301e;
      }

      .cls-25 {
        fill: #583120;
      }

      .cls-26 {
        fill: #fefefe;
      }

      .cls-27 {
        fill: #120804;
      }
    </style>
  </defs>
  <rect class="cls-9" width="792" height="792"/>
  <g>
    <path class="cls-26" d="M392.69,610.43c-64.7,0-129.41-.44-194.1.36-13.28.16-17.37-1.65-17.28-16.44.76-131.7.88-263.41-.1-395.11-.13-16.75,4.77-18.09,19.08-18.02,130.5.59,261,.6,391.5-.01,14.45-.07,19.14,1.49,19.02,18.09-.96,131.7-.86,263.41-.09,395.11.09,14.89-4.16,16.53-17.34,16.38-66.89-.76-133.79-.35-200.68-.35Z"/>
    <path class="cls-11" d="M525.4,307.52c-10.25,10.68-6.42,24.09-7.43,36.7-5.86,73.36-7.76,147.11-20.82,219.79-3,7.57-8.42,12.39-16.29,14.47-40.55,7.15-81.23,17.77-120.98-3.49-10.33-13.81-13.85-29.33-11.34-46.32,2.45-7.11,8.14-11.16,14.12-14.95,5.95-3.16,11.96-6.16,18.88-2.81,36.73,35.98,46.85,33.94,69-13.91,22.79-49.24,28.89-101.87,34.72-155.12,2.25-20.53-7.83-49.98,24.23-59.95,3.24.36,6.24,1.38,9.05,3.03,6.65,6.2,6.61,14.42,6.86,22.56Z"/>
    <path class="cls-20" d="M346.03,195.87c47.17-13.06,93.79-14.65,139.32,6.64-3.92,21.71,20.38,23.76,26.68,38.35l-.3-.5c5.39,24.39-13.4,22.62-25.94,20.59-36.01-5.82-72.04-3.07-108.06-3.98-18.89-.47-38.41-.97-42.65-25.93,9.79-9.75,3.44-24.62,10.94-35.18Z"/>
    <path class="cls-24" d="M301.36,438.73c-1.1-1.96-1.3-4-.6-6.14,7.48-10.5,13.9-21.56,17.74-33.96,9.04-31.65,13.58-62.4-16.34-86.69-10.76-16.61-3.93-28.58,10.74-37.51,8.24-5.01,16.71-9.6,24.3-15.59,2.87-1.61,5.96-2.62,9.2-3.12,6.66.03,12.46,1.59,14.9,8.67,3.29,3.57-10.51,8.53-1.38,8.58,20.24.12,22.07,12.81,23.95,27.21-.49,6.39-3.39,11.78-6.77,17-11.62,13.42-9.23,32.3-18.03,46.8-12.73,30.18,11.63,54.12,13.69,81.82-25.13,10.8-49.91,18.38-71.41-7.07Z"/>
    <path class="cls-19" d="M361,267c-2.8-5.96-8.41-6.8-13.99-7.69-16.42-1.57-36.48,10.85-47.28-12.32,2.75-4.27,5.49-8.55,8.24-12.82,10.57-4.6,17.7-17.71,32.05-12.98-1.1,17.37,6.25,25.75,24.44,26.32,43.07,1.34,86.46-4.44,129.17,6.21,9.56,2.38,16.88-2.35,18.1-13.35,8.92,11.08,32.21,11.79,24.91,34.57-3.45,8.76-9.91,12.35-19.15,11.16l-2.46-.26-2.42.47c-13.3-7.95-28.33-8.74-43.15-10.38-36.25-1.79-72.37-5.19-108.45-8.92Z"/>
    <path class="cls-16" d="M301.36,438.73c23.81,10.34,47.77,9.9,71.86,1.02,4.87-6.88,12.1-8.3,19.81-8.66,30.1,10.25,32.07,16.91,16.06,53.8-9.02,9.69-15.02,22.85-29.57,26.37-4.75,2.58-9.51,5.16-14.26,7.74-26.12,8.32-49.3,7.41-63.97-20.34-2.53-4.65-4.11-10.27-7.73-13.8-19.93-19.46-14.41-34.08,7.8-46.13Z"/>
    <path class="cls-14" d="M353.37,525.26c2.08,14.88,4.17,29.76,6.25,44.64-3.61,6.09-9.63,7.2-15.92,7.78-13.63-5.12-11.96,3.81-11.02,12.06-44.57,0-19.08-33.46-24.79-52.01,7.82-30.97,28.51-14.96,45.48-12.47Z"/>
    <path class="cls-2" d="M308.73,307.47c38.08,26.93,23.75,63.11,17.26,97.91-11.18,3.11-18.58-.4-21.26-12.17,2.25-13.43,18.43-31.55-11.55-34.15-4.63-11.25-3.72-22.41.36-33.54-.37-2.13-.07-4.17.91-6.1,3.66-5.29,7.1-10.84,14.26-11.94Z"/>
    <path class="cls-1" d="M332.68,589.75c-5.17-6.81-10.34-13.61-15.9-20.94,9.45-6.38,15.91,4.65,23.9,2.94,47.8,13.05,95.61,22.11,143.44.12,4.34-2.62,8.69-5.24,13.03-7.85,6.21,22.76-11.68,32.59-26.02,32.27-46.13-1.03-93.01,8.83-138.45-6.54Z"/>
    <path class="cls-10" d="M293.55,325.51c2.25,11.24-3.56,23.82,5.64,33.91,12.46,9.14,8.68,22.09,8.02,34.3,6.26,3.89,12.52,7.77,18.79,11.66-4.49,12.71-11.54,23.05-25.23,27.22-17.32-34.69-29.43-69.73-7.21-107.08Z"/>
    <path class="cls-13" d="M308.73,307.47c-4.75,3.98-9.51,7.96-14.26,11.94-2.83-6.86,2.82-15.11-8.56-21.45-7.07-3.93-20.28-17.73-5.86-31.09,19.66-5.58,39.79-6.26,60.03-5.59-.75,14.52-13.68,14.53-22.68,19.74-10.05,5.81-22.3,12.27-8.67,26.45Z"/>
    <path class="cls-22" d="M340.07,261.28c-19.4,8.45-39.17,12.87-60.03,5.59-.74-13.87,7.67-18.68,19.7-19.89,13.71,11.98,33.15,1.95,47.27,12.33-2.31.65-4.63,1.31-6.94,1.97Z"/>
    <path class="cls-17" d="M353.37,525.26c-16.47-.61-33.91-4.77-45.48,12.47-10.47-11.62-7.68-25.49-6.6-39.07,18.87,14.51,40.84,19.25,63.97,20.34-2.2,5.46-7.17,5.62-11.89,6.26Z"/>
    <path class="cls-21" d="M340.02,221.18c-10.29,5.3-18.4,15.99-32.05,12.98,4.13-21.27,19.33-31.54,38.05-38.29-5.05,7.72,13.92,21.14-6,25.32Z"/>
    <path class="cls-19" d="M512.04,240.85c-13.21-9.78-36.68-12.41-26.68-38.35,14.39,8.95,29.22,17.6,26.68,38.35Z"/>
    <path class="cls-15" d="M517.49,286.09c6.38-3.72,12.77-7.44,19.15-11.16,16.6,17.89-1.68,23.73-11.24,32.59-8.69-4.9-7.12-13.6-7.91-21.43Z"/>
    <path class="cls-8" d="M379.52,511.27c6.62-8.51,13.24-17.03,19.86-25.54,22.28,16.94,29.77-2.06,35.54-16.68,16.75-42.41,25.15-86.58,13.61-131.72-7.48-29.25-.7-51.64,23.35-69.23,16.87-1.32,32.56.04,40.73,18.21-25.11,12.65-19.14,38.08-20.05,57.75-2.91,62.48-16.09,121.94-43.57,177.86-6.56,13.35-18.7,27.58-35.37,24.47-17.4-3.24-30.97-15.39-34.09-35.12Z"/>
    <path class="cls-5" d="M484.12,571.87c-9.49,16.49-25.49,18.41-42.1,18.58-34.98.36-70.46,3.18-101.35-18.71,6.32-.61,12.63-1.23,18.95-1.84,41.27,15.48,82.95,4.44,124.5,1.97Z"/>
    <path class="cls-12" d="M471.88,268.1c-23.7,33.59-9.33,68.19-8.51,104.16.94,41.11-4.42,88.41-34.28,124.77-4.68,5.7-8.83,12.93-18.47,9.67-10.4-3.52-11.56-11.81-11.24-20.98,2.35-16.68,35.73-38.27-7.52-47.77-3.29-4.09-4.26-8.78-3.58-13.89,12.5-27.34,20.9-55.31,12.93-85.73-3.42-14.45-12.84-25.46-21.25-37.06-7.6-5.32,0-25.5-19.1-19.58-2.14-9.26-12.8,6.6-13.43-4.24-.5-8.51,6.97-9.61,13.58-10.46,37.09-12.52,73.91,2.09,110.88,1.1Z"/>
    <path class="cls-7" d="M406.31,332.77c11.31,32.51,10.83,63.27-13.43,90.49-20.39,13.57-28.76-1.19-34.02-16.35-5.12-14.76-10.27-30.29-6.47-46.64,11.24-13.95.91-36.94,19.91-47.64,8.62,6.2,9.1,16.22,11.92,25.15,2.67,9.57-.42,19.22.24,28.79.48,6.98,3.82,9.88,9.84,3.55,6.21-11.85-.27-27.66,12.02-37.36Z"/>
    <path class="cls-3" d="M380.65,340.65c-10.89-6.92-6.75-18.33-8.36-28.02,2.55-3.79,5.1-7.58,7.66-11.36,20.78.46,21.55,17.67,26.36,31.5-2.67,15.38,4.63,31.99-5.69,46.43-13.69-9.2-7.52-28.71-19.97-38.55Z"/>
    <path class="cls-27" d="M352.38,360.27c2.26,16.7,8.79,32.39,11.29,49.26.95,6.4,15.1,18.05,29.2,13.74-.34,4.89-.68,9.78-1.02,14.68-6.21.59-12.43,1.19-18.64,1.8-28.55-20.82-30.01-48.75-20.83-79.48Z"/>
    <path class="cls-25" d="M392.09,471.09c-15.69,24.15-33.27,43.62-65.62,26.6-6.81-11.45-2.48-21.38,4.21-31.01,20.77-2.87,42.39-17.38,61.41,4.4Z"/>
    <path class="cls-18" d="M392.09,471.09c-19.72-7.68-39.4-10.25-58.96.51-4.74,3.84-9.41,3.78-13.3-.96-3.01-3.67-1.91-7.54.87-11.03,19.34-2.36,38.64-5.11,58.03-6.95,13.83-1.31,26.31-.33,13.36,18.42Z"/>
    <path class="cls-23" d="M320.69,459.62c-.23,8.55,4.38,12.06,12.44,11.99-2.22,8.7-4.44,17.4-6.66,26.09-6.36-5.32-13.86-9.74-18.86-16.12-13.56-17.33-7.78-24.47,13.08-21.96Z"/>
    <path class="cls-6" d="M307.21,393.72c-11.25-9.43-4.26-23.12-8.02-34.3.93-6.68,2.14-12.66,11.25-12.45,7.31.17,9.33,4.24,9.24,10.25-.21,13.47,5.27,29-12.47,36.5Z"/>
    <path class="cls-4" d="M380.65,340.65c27.16,2.21,16.11,24.25,19.97,38.55-4.16,5.73-7.81,15.43-16.11,10.75-5.16-2.91-9.23-12.17-9.33-18.64-.15-10.19,3.45-20.43,5.47-30.66Z"/>
  </g>
</svg>