<?xml version="1.0" encoding="UTF-8"?>
<svg id="Layer_1" data-name="Layer 1" xmlns="http://www.w3.org/2000/svg" viewBox="0 0 394.4 394.4">
  <defs>
    <style>
      .cls-1 {
        fill: #646464;
      }

      .cls-1, .cls-2, .cls-3, .cls-4, .cls-5, .cls-6, .cls-7, .cls-8, .cls-9, .cls-10, .cls-11, .cls-12, .cls-13, .cls-14, .cls-15, .cls-16, .cls-17, .cls-18, .cls-19, .cls-20, .cls-21, .cls-22, .cls-23, .cls-24, .cls-25, .cls-26 {
        stroke-width: 0px;
      }

      .cls-2 {
        fill: #999898;
      }

      .cls-3 {
        fill: #a9a8a8;
      }

      .cls-4 {
        fill: #1a1a1a;
      }

      .cls-5 {
        fill: #858585;
      }

      .cls-6 {
        fill: #131313;
      }

      .cls-7 {
        fill: #898888;
      }

      .cls-8 {
        fill: #663a27;
      }

      .cls-9 {
        fill: #7e7d7d;
      }

      .cls-10 {
        fill: #552f1e;
      }

      .cls-11 {
        fill: #704330;
      }

      .cls-12 {
        fill: #1b0e09;
      }

      .cls-13 {
        fill: #432518;
      }

      .cls-14 {
        fill: #353332;
      }

      .cls-15 {
        fill: #4e5252;
      }

      .cls-16 {
        fill: #140905;
      }

      .cls-17 {
        fill: #120905;
      }

      .cls-18 {
        fill: #969696;
      }

      .cls-19 {
        fill: #adadad;
      }

      .cls-20 {
        fill: #848484;
      }

      .cls-21 {
        fill: #6d6d6d;
      }

      .cls-22 {
        fill: #371e13;
      }

      .cls-23 {
        fill: #57301e;
      }

      .cls-24 {
        fill: #583120;
      }

      .cls-25 {
        fill: #fefefe;
      }

      .cls-26 {
        fill: #120804;
      }
    </style>
  </defs>
  <path class="cls-25" d="M394.05,197.1c0,60.43-.37,120.87.31,181.3.13,11.96-1.14,16.08-14.95,16-121.87-.72-243.74-.64-365.61-.07-12.04.06-13.59-3.58-13.55-14.23C.62,258.22.86,136.34,0,14.47-.1-.58,5.84.18,16.63.2,137.49.52,258.36.69,379.22,0c13.45-.08,15.32,3.45,15.17,15.8-.76,60.42-.34,120.86-.34,181.3Z"/>
  <path class="cls-10" d="M310.05,122.05c-9.42,9.8-5.9,22.11-6.82,33.68-5.38,67.33-7.13,135-19.12,201.7-2.76,6.94-7.74,11.37-14.97,13.28-37.24,6.56-74.6,16.31-111.12-3.21-9.49-12.68-12.72-26.91-10.41-42.51,2.25-6.53,7.48-10.25,12.97-13.72,5.46-2.9,10.99-5.66,17.34-2.58,33.73,33.02,43.03,31.15,63.37-12.76,20.93-45.18,26.53-93.48,31.88-142.36,2.06-18.84-7.19-45.87,22.26-55.02,2.97.33,5.73,1.27,8.31,2.78,6.1,5.69,6.07,13.24,6.3,20.71Z"/>
  <path class="cls-19" d="M145.31,19.58c43.32-11.98,86.14-13.44,127.96,6.09-3.6,19.93,18.72,21.81,24.51,35.19l-.28-.46c4.95,22.38-12.3,20.76-23.83,18.9-33.07-5.34-66.16-2.82-99.25-3.65-17.35-.43-35.28-.89-39.17-23.8,8.99-8.95,3.16-22.6,10.05-32.28Z"/>
  <path class="cls-23" d="M104.28,242.46c-1.01-1.8-1.19-3.67-.55-5.63,6.87-9.64,12.76-19.78,16.3-31.17,8.3-29.05,12.47-57.26-15.01-79.56-9.88-15.24-3.61-26.23,9.86-34.42,7.57-4.6,15.34-8.81,22.32-14.31,2.64-1.47,5.47-2.4,8.45-2.87,6.12.03,11.44,1.46,13.69,7.96,3.02,3.27-9.66,7.83-1.27,7.88,18.59.11,20.27,11.76,21.99,24.97-.45,5.86-3.11,10.81-6.21,15.6-10.67,12.32-8.47,29.64-16.56,42.95-11.69,27.7,10.68,49.66,12.58,75.09-23.08,9.91-45.84,16.87-65.59-6.49Z"/>
  <path class="cls-18" d="M159.06,84.86c-2.57-5.47-7.72-6.24-12.85-7.06-15.08-1.44-33.5,9.96-43.42-11.31,2.52-3.92,5.04-7.84,7.57-11.77,9.71-4.22,16.26-16.25,29.43-11.91-1.01,15.95,5.74,23.63,22.44,24.15,39.55,1.23,79.41-4.07,118.64,5.7,8.78,2.19,15.5-2.15,16.62-12.25,8.2,10.17,29.58,10.82,22.88,31.73-3.17,8.04-9.1,11.34-17.59,10.24l-2.26-.24-2.23.43c-12.21-7.29-26.02-8.02-39.63-9.53-33.3-1.65-66.46-4.77-99.61-8.19Z"/>
  <path class="cls-15" d="M104.28,242.46c21.87,9.49,43.88,9.08,66,.94,4.47-6.31,11.12-7.61,18.2-7.94,27.64,9.4,29.46,15.52,14.75,49.37-8.28,8.89-13.79,20.97-27.16,24.2-4.37,2.37-8.73,4.73-13.1,7.1-23.99,7.64-45.28,6.8-58.75-18.67-2.32-4.27-3.78-9.42-7.1-12.66-18.31-17.86-13.23-31.28,7.16-42.34Z"/>
  <path class="cls-13" d="M152.05,321.87c1.91,13.66,3.83,27.31,5.74,40.97-3.32,5.59-8.85,6.61-14.62,7.14-12.52-4.7-10.99,3.49-10.12,11.07-40.93,0-17.53-30.7-22.77-47.73,7.18-28.42,26.18-13.73,41.78-11.45Z"/>
  <path class="cls-2" d="M111.05,122c34.98,24.71,21.81,57.92,15.86,89.85-10.27,2.85-17.06-.37-19.52-11.17,2.07-12.32,16.93-28.95-10.6-31.34-4.25-10.32-3.42-20.57.33-30.78-.34-1.96-.06-3.83.84-5.6,3.36-4.86,6.52-9.95,13.1-10.95Z"/>
  <path class="cls-1" d="M133.05,381.05c-4.75-6.25-9.49-12.49-14.6-19.22,8.68-5.86,14.61,4.26,21.95,2.7,43.91,11.98,87.81,20.29,131.75.11,3.99-2.4,7.98-4.8,11.97-7.21,5.7,20.89-10.73,29.91-23.9,29.62-42.37-.95-85.43,8.1-127.16-6Z"/>
  <path class="cls-9" d="M109.65,201.15c5.75,3.57,11.5,7.13,17.25,10.7-4.13,11.66-10.6,21.15-23.18,24.98-15.91-31.83-27.03-63.99-6.62-98.27,2.07,10.31-3.27,21.86,5.18,31.12,11.44,8.39,7.97,20.27,7.36,31.48Z"/>
  <path class="cls-12" d="M111.05,122c-4.37,3.65-8.73,7.3-13.1,10.95-2.6-6.29,2.59-13.87-7.86-19.68-6.49-3.61-18.62-16.27-5.39-28.53,18.06-5.12,36.54-5.74,55.14-5.13-.69,13.33-12.56,13.34-20.83,18.11-9.23,5.34-20.48,11.26-7.96,24.27Z"/>
  <path class="cls-21" d="M139.84,79.62c-17.82,7.76-35.98,11.81-55.14,5.13-.68-12.73,7.04-17.14,18.09-18.25,12.59,11,30.45,1.79,43.42,11.31-2.12.6-4.25,1.2-6.38,1.81Z"/>
  <path class="cls-16" d="M152.05,321.87c-15.12-.56-31.14-4.38-41.78,11.45-9.62-10.66-7.05-23.39-6.06-35.85,17.33,13.31,37.51,17.66,58.75,18.66-2.02,5.01-6.58,5.16-10.92,5.74Z"/>
  <path class="cls-20" d="M139.79,42.82c-9.45,4.86-16.9,14.68-29.43,11.91,3.8-19.52,17.76-28.94,34.95-35.14-4.64,7.08,12.79,19.4-5.51,23.23Z"/>
  <path class="cls-18" d="M297.78,60.87c-12.13-8.97-33.69-11.39-24.51-35.2,13.22,8.22,26.84,16.15,24.51,35.2Z"/>
  <path class="cls-14" d="M302.79,102.39c5.86-3.41,11.73-6.83,17.59-10.24,15.24,16.42-1.55,21.78-10.32,29.91-7.98-4.5-6.54-12.48-7.27-19.66Z"/>
  <path class="cls-8" d="M176.07,309.03c6.08-7.81,12.16-15.63,18.24-23.44,20.46,15.54,27.34-1.89,32.64-15.31,15.38-38.92,23.1-79.45,12.5-120.88-6.87-26.84-.64-47.39,21.45-63.53,15.5-1.21,29.9.03,37.41,16.71-23.06,11.61-17.58,34.94-18.42,53-2.67,57.34-14.78,111.9-40.02,163.23-6.03,12.26-17.18,25.31-32.49,22.46-15.98-2.97-28.45-14.12-31.31-32.23Z"/>
  <path class="cls-5" d="M272.14,364.64c-8.72,15.13-23.41,16.9-38.66,17.05-32.13.33-64.71,2.92-93.09-17.17,5.8-.56,11.6-1.12,17.4-1.69,37.9,14.21,76.19,4.08,114.35,1.8Z"/>
  <path class="cls-11" d="M260.89,85.87c-21.77,30.82-8.57,62.58-7.81,95.59.86,37.73-4.06,81.13-31.48,114.5-4.3,5.23-8.11,11.87-16.97,8.87-9.56-3.23-10.62-10.84-10.33-19.25,2.15-15.31,32.82-35.12-6.91-43.84-3.03-3.76-3.91-8.06-3.29-12.75,11.48-25.09,19.19-50.76,11.87-78.67-3.14-13.26-11.8-23.37-19.52-34.01-6.98-4.88,0-23.41-17.55-17.96-1.97-8.5-11.75,6.06-12.33-3.89-.46-7.81,6.4-8.82,12.47-9.6,34.07-11.49,67.88,1.92,101.84,1.01Z"/>
  <path class="cls-7" d="M200.67,145.22c10.39,29.84,9.94,58.06-12.34,83.05-18.73,12.46-26.42-1.1-31.25-15.01-4.7-13.54-9.43-27.8-5.95-42.8,10.32-12.81.83-33.9,18.29-43.72,7.92,5.69,8.36,14.89,10.95,23.08,2.45,8.79-.39,17.64.22,26.42.44,6.41,3.51,9.06,9.04,3.26,5.7-10.88-.24-25.39,11.04-34.28Z"/>
  <path class="cls-3" d="M200.67,145.22c-2.45,14.12,4.25,29.36-5.23,42.61-12.57-8.45-6.9-26.35-18.34-35.38-10-6.35-6.2-16.82-7.68-25.71,2.34-3.48,4.69-6.95,7.03-10.43,19.08.42,19.79,16.22,24.21,28.91Z"/>
  <path class="cls-26" d="M151.14,170.46c2.07,15.32,8.08,29.73,10.37,45.21.87,5.87,13.87,16.56,26.82,12.61-.31,4.48-.62,8.98-.94,13.47-5.71.55-11.41,1.1-17.12,1.65-26.22-19.1-27.56-44.74-19.14-72.94Z"/>
  <path class="cls-24" d="M187.61,272.16c-14.41,22.16-30.56,40.03-60.27,24.42-6.26-10.51-2.28-19.62,3.87-28.46,19.07-2.64,38.94-15.95,56.4,4.04Z"/>
  <path class="cls-17" d="M187.61,272.16c-18.11-7.05-36.19-9.41-54.15.47-4.35,3.53-8.64,3.47-12.22-.88-2.77-3.36-1.76-6.92.8-10.12,17.76-2.17,35.49-4.69,53.3-6.38,12.7-1.2,24.17-.3,12.27,16.91Z"/>
  <path class="cls-22" d="M122.04,261.63c-.21,7.85,4.02,11.07,11.43,11.01-2.04,7.98-4.08,15.97-6.12,23.95-5.84-4.88-12.73-8.94-17.32-14.8-12.46-15.9-7.14-22.46,12.02-20.15Z"/>
  <path class="cls-6" d="M109.65,201.15c-10.33-8.65-3.91-21.22-7.36-31.48.86-6.13,1.97-11.62,10.33-11.42,6.71.15,8.57,3.9,8.48,9.4-.2,12.36,4.84,26.61-11.45,33.5Z"/>
  <path class="cls-4" d="M177.11,152.45c24.95,2.03,14.8,22.25,18.34,35.38-3.82,5.26-7.17,14.16-14.8,9.86-4.74-2.67-8.48-11.17-8.57-17.11-.14-9.35,3.17-18.75,5.02-28.13Z"/>
</svg>